<svg width="52" height="53" viewBox="0 0 52 53" fill="none" xmlns="http://www.w3.org/2000/svg">
<g clip-path="url(#clip0_40_24)">
<path d="M25.8776 27.134C26.083 27.134 26.2495 26.9684 26.2495 26.7641C26.2495 26.5598 26.083 26.3942 25.8776 26.3942C25.6721 26.3942 25.5056 26.5598 25.5056 26.7641C25.5056 26.9684 25.6721 27.134 25.8776 27.134Z" fill="#403D39"/>
<path d="M25.8776 29.7235C26.083 29.7235 26.2495 29.5578 26.2495 29.3535C26.2495 29.1493 26.083 28.9836 25.8776 28.9836C25.6721 28.9836 25.5056 29.1493 25.5056 29.3535C25.5056 29.5578 25.6721 29.7235 25.8776 29.7235Z" fill="#403D39"/>
<path d="M25.8776 32.3128C26.083 32.3128 26.2495 32.1472 26.2495 31.9429C26.2495 31.7386 26.083 31.573 25.8776 31.573C25.6721 31.573 25.5056 31.7386 25.5056 31.9429C25.5056 32.1472 25.6721 32.3128 25.8776 32.3128Z" fill="#403D39"/>
<path d="M25.8776 34.9023C26.083 34.9023 26.2495 34.7367 26.2495 34.5324C26.2495 34.3281 26.083 34.1625 25.8776 34.1625C25.6721 34.1625 25.5056 34.3281 25.5056 34.5324C25.5056 34.7367 25.6721 34.9023 25.8776 34.9023Z" fill="#403D39"/>
<path d="M29.9693 28.2439H27.7374C27.532 28.2439 27.3655 28.4095 27.3655 28.6138V31.5732C27.3655 31.7775 27.532 31.9431 27.7374 31.9431H29.9693C30.1747 31.9431 30.3413 31.7775 30.3413 31.5732V28.6138C30.3413 28.4095 30.1747 28.2439 29.9693 28.2439ZM29.5973 31.2032H28.1094V28.9837H29.5973V31.2032Z" fill="#403D39"/>
<path d="M37.0034 31.8006C37.005 31.7952 37.0071 31.7898 37.0086 31.7844C37.0106 31.7768 37.0117 31.769 37.0135 31.7613C37.0668 31.5376 37.0376 31.2941 36.9111 31.0801L36.6706 30.6734L36.2525 29.9664C36.2522 29.9659 36.2518 29.9654 36.2515 29.9649L31.9209 22.643C31.7968 22.4316 31.6372 22.2433 31.4487 22.0858C31.0613 21.7624 30.5723 21.5852 30.0667 21.5852H29.9716C29.9711 21.5852 29.9705 21.5851 29.97 21.5851H28.7717C28.4566 20.8977 27.2664 20.4753 25.8782 20.4753C24.49 20.4753 23.2998 20.8977 22.9847 21.5851H21.7864C21.7859 21.5851 21.7854 21.5852 21.7848 21.5852H21.6894C21.184 21.5852 20.6945 21.7625 20.3077 22.0859C20.1191 22.2435 19.9594 22.432 19.8352 22.6436L14.8374 31.1546C14.7699 31.2697 14.733 31.3939 14.7224 31.5184C14.7019 31.7589 14.7824 32.0006 14.9491 32.1805C15.0075 32.2434 15.0763 32.2989 15.1549 32.344L16.221 32.9562C16.6364 33.1946 17.1672 33.0554 17.4102 32.6442L17.9868 31.668L18.1381 31.4118C18.1383 31.4116 18.1384 31.4113 18.1385 31.411L19.9265 28.3835L19.9258 36.382C19.9258 36.5257 20.0095 36.6564 20.1405 36.7172L22.7045 37.9073C24.7158 38.8406 27.0395 38.8406 29.0504 37.9073L31.6144 36.7172C31.7453 36.6564 31.829 36.5257 31.829 36.382L31.8297 28.3703L34.0882 32.1528L34.3699 32.6247C34.3852 32.6503 34.4016 32.6748 34.419 32.6983C34.6039 32.9475 34.9041 33.0726 35.2016 33.0451C35.3232 33.0339 35.4442 32.998 35.5567 32.9335L36.4475 32.4219L36.5744 32.3491C36.6023 32.3331 36.6291 32.3158 36.6547 32.2974C36.8292 32.1724 36.948 31.9954 37.0034 31.8006ZM36.2027 31.7083L36.0748 31.7818L35.1851 32.2926C35.1645 32.3044 35.1421 32.3095 35.12 32.3094C35.0845 32.3092 35.0498 32.2949 35.0252 32.268C35.0195 32.2618 35.0144 32.2549 35.01 32.2474L34.7318 31.7816L34.5455 31.4694L35.8065 30.6717L36.0244 31.04L36.2696 31.4549C36.2979 31.5026 36.3014 31.5573 36.2854 31.6059C36.2717 31.6475 36.2438 31.6847 36.2027 31.7083ZM23.1056 22.325L24.3481 23.7372L23.6929 24.606L22.4187 22.325H23.1056V22.325ZM28.6509 22.325H29.3377L28.0635 24.606L27.4083 23.7372L28.6509 22.325ZM24.1836 21.5103C24.6195 21.3245 25.226 21.2152 25.8782 21.2152C26.5305 21.2152 27.137 21.3245 27.5729 21.5103C27.8428 21.6253 28.008 21.7514 28.0752 21.8557L26.6499 23.4756C26.6497 23.4758 26.6495 23.476 26.6494 23.4762L25.8782 24.3526L25.1071 23.4762C25.1069 23.476 25.1068 23.4758 25.1066 23.4756L23.6813 21.8557C23.7485 21.7514 23.9137 21.6253 24.1836 21.5103ZM16.7687 32.2693C16.7329 32.33 16.6545 32.3506 16.5934 32.3155L15.5267 31.7031C15.519 31.6987 15.5119 31.6936 15.5055 31.6879C15.4783 31.6638 15.4635 31.6296 15.4628 31.5945C15.4624 31.5718 15.4676 31.5488 15.48 31.5277L15.9802 30.6757L17.2997 31.3705L16.7687 32.2693ZM31.7777 26.8342C31.5847 26.5108 31.0859 26.647 31.0859 27.023L31.0851 36.1464L28.7358 37.2369C26.9243 38.0776 24.831 38.0776 23.0192 37.2369L20.6698 36.1465L20.6706 27.0231C20.6706 26.646 20.1698 26.5106 19.9778 26.8357L17.6769 30.7319L16.3556 30.0362L20.4777 23.0165C20.5588 22.8783 20.6631 22.7553 20.7863 22.6523C21.0087 22.4664 21.2829 22.3544 21.5705 22.3302L23.3211 25.464C23.4521 25.6983 23.7822 25.7207 23.9439 25.5063L24.8488 24.3063L25.5983 25.1581C25.7465 25.3265 26.0099 25.3265 26.1581 25.1581L26.9076 24.3064L27.8124 25.5063C27.9741 25.7207 28.3043 25.6983 28.4352 25.464L30.1858 22.3302C30.4734 22.3545 30.7474 22.4664 30.9701 22.6524C31.0933 22.7553 31.1976 22.8783 31.2786 23.0164L35.429 30.0336L34.1653 30.833L31.7777 26.8342Z" fill="#403D39"/>
<path d="M36.0201 32.8698V29.4895L37.3798 30.6163L37.1532 32.8698H36.0201Z" fill="white" stroke="white"/>
<path d="M16.0789 29.0388L16.1637 33.0651L14.691 31.7531L14.8752 29.0639L16.0789 29.0388Z" fill="white" stroke="white"/>
<path d="M36.0026 3.42358H15.9973V44.6196H36.0026V3.42358ZM33.9856 42.9898H18.0145V5.05339H33.9856V42.9898Z" fill="#403D39"/>
<path d="M40 0.193726H12V47.8495H17.1216L13.5423 52.1937H15.9601L19.5444 47.8494H24.9915V52.1937H27.0086V47.8494H32.4488L35.9492 52.1936H38.4323L34.8727 47.8494H40V0.193726V0.193726ZM37.9829 46.2197H14.0169V1.82354H37.9828V46.2197H37.9829Z" fill="#403D39"/>
</g>
<defs>
<clipPath id="clip0_40_24">
<rect width="52" height="52" fill="white" transform="translate(0 0.193726)"/>
</clipPath>
</defs>
</svg>
