<svg xmlns="http://www.w3.org/2000/svg" xmlns:xlink="http://www.w3.org/1999/xlink" version="1.1" width="375px" height="375px" viewBox="0 0 375 375" style="&#10;    height: auto;&#10;    width: 240px;&#10;">
<g enable-background="new">
<g clip-path="url(#cp3)">
<clipPath id="cp4">
<path transform="matrix(.24,0,0,.24,0,0)" d="M 0 0 L 1562.5 0 L 1562.5 1562.5 L 0 1562.5 Z "/>
</clipPath>
<g clip-path="url(#cp4)">
<clipPath id="cp5">
<path transform="matrix(.24,0,0,.24,0,0)" d="M 0 0 L 1562.5 0 L 1562.5 1562.5 L 0 1562.5 Z "/>
</clipPath>
<g clip-path="url(#cp5)">
<clipPath id="cp6">
<path transform="matrix(.24,0,0,.24,0,0)" d="M 327.448 332.91633 L 1224.323 332.91633 L 1224.323 1229.7913 L 327.448 1229.7913 Z "/>
</clipPath>
<g clip-path="url(#cp6)">
<clipPath id="cp7">
<path transform="matrix(.24,0,0,.24,0,0)" d="M 327.448 332.91633 L 1224.323 332.91633 L 1224.323 1229.7913 L 327.448 1229.7913 Z "/>
</clipPath>
<g clip-path="url(#cp7)">
<clipPath id="cp8">
<path transform="matrix(.24,0,0,.24,0,0)" d="M 775.8855 332.91633 C 528.22036 332.91633 327.448 533.6886 327.448 781.3538 C 327.448 1029.019 528.22036 1229.7913 775.8855 1229.7913 C 1023.55068 1229.7913 1224.323 1029.019 1224.323 781.3538 C 1224.323 533.6886 1023.55068 332.91633 775.8855 332.91633 "/>
</clipPath>
<g clip-path="url(#cp8)">
<path transform="matrix(.7502042,0,0,.7502042,78.58752,79.89992)" stroke-width="2" stroke-linecap="butt" stroke-miterlimit="4" stroke-linejoin="miter" fill="none" stroke="#bd905a" d="M 143.46094 0 C 64.22965 0 0 64.22965 0 143.46094 C 0 222.69222 64.22965 286.92189 143.46094 286.92189 C 222.69222 286.92189 286.92189 222.69222 286.92189 143.46094 C 286.92189 64.22965 222.69222 0 143.46094 0 "/>
</g>
</g>
</g>
</g>
</g>
</g>

<g clip-path="url(#cp9)">
<clipPath id="cp10">
<path transform="matrix(.24,0,0,.24,0,0)" d="M 0 0 L 1562.5 0 L 1562.5 1562.5 L 0 1562.5 Z "/>
</clipPath>
<g clip-path="url(#cp10)">
<clipPath id="cp11">
<path transform="matrix(.24,0,0,.24,0,0)" d="M 0 0 L 1562.5 0 L 1562.5 1562.5 L 0 1562.5 Z "/>
</clipPath>
<g clip-path="url(#cp11)">
<clipPath id="cp12">
<path transform="matrix(.24,0,0,.24,0,0)" d="M 184.92992 754.6272 L 663.1593 319.03117 L 1225.0151 935.8778 L 746.7857 1371.4739 L 184.92992 754.6272 Z "/>
</clipPath>
<g clip-path="url(#cp12)">
<clipPath id="cp13">
<path transform="matrix(.24,0,0,.24,0,0)" d="M 184.92992 754.6272 L 801.77658 192.77143 L 1363.6323 809.61807 L 746.7857 1371.4739 L 184.92992 754.6272 Z "/>
</clipPath>
<g clip-path="url(#cp13)">
<path transform="matrix(.3646384,-.33213146,.33213146,.3646384,44.38318,181.11052)" d="M 203 406 C 91.1 406 0 314.9 0 203 C 0 91.100009 91.1 0 203 0 C 314.9 0 406 91.1 406 203 C 406 314.9 314.9 406 203 406 Z M 203 3 C 92.7 3 3 92.7 3 203 C 3 313.3 92.7 403 203 403 C 313.3 403 403 313.3 403 203 C 403 92.70001 313.3 3 203 3 Z " fill="#bd905a"/>
</g>
</g>
</g>
</g>
</g>

<g clip-path="url(#cp14)">
<g id="Layer-1" data-name="P">
</g>
<text fill="#bd905a" xml:space="preserve" transform="matrix(.75 0 0 .75 99.611629 139.17234)" font-size="97.76" font-family="TAN-PEARL"><tspan y="103" x="20.59375 106.70796">MM</tspan></text>
<g id="Layer-1" data-name="P">
</g>
<text fill="#bd905a" xml:space="preserve" transform="matrix(.7461351 .07604154 -.07604154 .7461351 190.2116 85.67296)" font-size="14.8" font-family="Lustria"><tspan y="13" x="0">M</tspan></text>
<g id="Layer-1" data-name="P">
</g>
<text fill="#bd905a" xml:space="preserve" transform="matrix(.72423496 .19489414 -.19489414 .72423496 208.03777 88.19486)" font-size="14.8" font-family="Lustria"><tspan y="13" x="0">A</tspan></text>
<g id="Layer-1" data-name="P">
</g>
<text fill="#bd905a" xml:space="preserve" transform="matrix(.68704679 .3007768 -.3007768 .68704679 222.6054 92.65896)" font-size="14.8" font-family="Lustria"><tspan y="13" x="0">G</tspan></text>
<g id="Layer-1" data-name="P">
</g>
<text fill="#bd905a" xml:space="preserve" transform="matrix(.6434934 .38524825 -.38524825 .6434934 236.58725 99.44334)" font-size="14.8" font-family="Lustria"><tspan y="13" x="0">I</tspan></text>
<g id="Layer-1" data-name="P">
</g>
<text fill="#bd905a" xml:space="preserve" transform="matrix(.5916244 .4609561 -.4609561 .5916244 245.5343 105.16013)" font-size="14.8" font-family="Lustria"><tspan y="13" x="0">C</tspan></text>
<g id="Layer-1" data-name="P">
</g>
<text fill="#bd905a" xml:space="preserve" transform="matrix(.5335371 .52710357 -.52710357 .5335371 256.72605 114.592288)" font-size="14.8" font-family="Lustria"><tspan y="13" x="0"> </tspan></text>
<g id="Layer-1" data-name="P">
</g>
<text fill="#bd905a" xml:space="preserve" transform="matrix(.4587199 .59335997 -.59335997 .4587199 263.50117 121.57858)" font-size="14.8" font-family="Lustria"><tspan y="13" x="0">M</tspan></text>
<g id="Layer-1" data-name="P">
</g>
<text fill="#bd905a" xml:space="preserve" transform="matrix(.37251065 .6509499 -.6509499 .37251065 273.8175 136.13884)" font-size="14.8" font-family="Lustria"><tspan y="13" x="0">I</tspan></text>
<g id="Layer-1" data-name="P">
</g>
<text fill="#bd905a" xml:space="preserve" transform="matrix(.2910133 .69123896 -.69123896 .2910133 278.81184 145.49929)" font-size="14.8" font-family="Lustria"><tspan y="13" x="0">R</tspan></text>
<g id="Layer-1" data-name="P">
</g>
<text fill="#bd905a" xml:space="preserve" transform="matrix(.19086854 .7253063 -.7253063 .19086854 283.99497 159.12427)" font-size="14.8" font-family="Lustria"><tspan y="13" x="0">R</tspan></text>
<g id="Layer-1" data-name="P">
</g>
<text fill="#bd905a" xml:space="preserve" transform="matrix(.08106405 .7456062 -.7456062 .08106405 287.2481 173.39109)" font-size="14.8" font-family="Lustria"><tspan y="13" x="0">O</tspan></text>
<g id="Layer-1" data-name="P">
</g>
<text fill="#bd905a" xml:space="preserve" transform="matrix(-.030537403 .749378 -.749378 -.030537403 288.39646 189.49868)" font-size="14.8" font-family="Lustria"><tspan y="13" x="0">R</tspan></text>
</g>
</g>
</svg>