<svg width="52" height="53" viewBox="0 0 52 53" fill="none" xmlns="http://www.w3.org/2000/svg">
<g clip-path="url(#clip0_25_70)">
<path d="M19.5 46.2727C19.5 47.4644 20.475 48.4394 21.6667 48.4394H30.3334C31.525 48.4394 32.5 47.4644 32.5 46.2727V44.1061H19.5V46.2727ZM26 5.10608C17.6367 5.10608 10.8334 11.9094 10.8334 20.2727C10.8334 25.4294 13.4117 29.9577 17.3334 32.7094V37.6061C17.3334 38.7977 18.3084 39.7727 19.5 39.7727H32.5C33.6917 39.7727 34.6667 38.7977 34.6667 37.6061V32.7094C38.5884 29.9577 41.1667 25.4294 41.1667 20.2727C41.1667 11.9094 34.3634 5.10608 26 5.10608ZM30.3334 30.4561V35.4394H21.6667V30.4561C18.3734 28.1377 15.1667 25.7544 15.1667 20.2727C15.1667 14.2927 20.02 9.43941 26 9.43941C31.98 9.43941 36.8334 14.2927 36.8334 20.2727C36.8334 25.6677 33.5617 28.1811 30.3334 30.4561Z" fill="#403D39"/>
</g>
<g clip-path="url(#clip1_25_70)">
<path d="M22.4556 16.2638L21.2214 15.0364L20.2545 16.0033L21.4819 17.2307L22.4556 16.2638ZM20.5631 20.1449H18.506V21.5163H20.5631V20.1449ZM26.7344 13.3221H25.363V15.345H26.7344V13.3221ZM31.8429 16.0033L30.8761 15.0364L29.6487 16.2638L30.6155 17.2307L31.8429 16.0033ZM29.6418 25.3974L30.8692 26.6317L31.8361 25.6648L30.6018 24.4374L29.6418 25.3974ZM31.5344 20.1449V21.5163H33.5915V20.1449H31.5344ZM26.0487 16.7164C23.7791 16.7164 21.9345 18.5609 21.9345 20.8306C21.9345 23.1003 23.7791 24.9448 26.0487 24.9448C28.3184 24.9448 30.163 23.1003 30.163 20.8306C30.163 18.5609 28.3184 16.7164 26.0487 16.7164ZM25.363 28.3391H26.7344V26.3163H25.363V28.3391ZM20.2545 25.658L21.2214 26.6248L22.4488 25.3906L21.4819 24.4237L20.2545 25.658Z" fill="#403D39"/>
</g>
<defs>
<clipPath id="clip0_25_70">
<rect width="52" height="52" fill="white" transform="translate(0 0.772705)"/>
</clipPath>
<clipPath id="clip1_25_70">
<rect width="16.4569" height="16.4569" fill="white" transform="translate(17.8203 12.9449)"/>
</clipPath>
</defs>
</svg>
