<svg width="52" height="53" viewBox="0 0 52 53" fill="none" xmlns="http://www.w3.org/2000/svg">
<path d="M26 5.3219L2.16663 26.7727H8.66663V46.2727H23.8333H28.1666H43.3333V26.7727H49.8333L26 5.3219ZM26 11.1533L39 22.8541V24.6061V41.9394H32.5H19.5H13V22.8541L26 11.1533Z" fill="#403D39"/>
<circle cx="19.5" cy="28.5" r="1.5" fill="#403D39"/>
<rect x="22" y="20" width="2" height="10" fill="#403D39"/>
<path d="M22 30L24 30L21.154 37.1392L19.3942 36.1889L22 30Z" fill="#403D39"/>
<path d="M25.775 31L27.775 31L26.275 38.461L24.3912 38.4609L25.775 31Z" fill="#403D39"/>
<path d="M29.0625 30.0001L31.0136 30.0001L32.8382 38.0907L30.8872 38.5307L29.0625 30.0001Z" fill="#403D39"/>
<path d="M24 26.5H27.5C29.433 26.5 31 28.067 31 30V30H27.5H24V26.5Z" fill="#403D39"/>
</svg>
